<mxfile host="Electron" modified="2024-04-11T14:13:04.117Z" agent="Mozilla/5.0 (Windows NT 10.0; Win64; x64) AppleWebKit/537.36 (KHTML, like Gecko) draw.io/24.1.0 Chrome/120.0.6099.109 Electron/28.1.0 Safari/537.36" etag="dHzkCMG7Mxz9gszrqwSv" version="24.1.0" type="device">
  <diagram name="Page-1" id="YTIz51-vmuBzOdCrU7fn">
    <mxGraphModel dx="1030" dy="593" grid="1" gridSize="10" guides="1" tooltips="1" connect="1" arrows="1" fold="1" page="1" pageScale="1" pageWidth="850" pageHeight="1100" math="0" shadow="0">
      <root>
        <mxCell id="0" />
        <mxCell id="1" parent="0" />
        <mxCell id="16FIuzxWoAcxYkZVvPK7-2" value="VEHICULOS" style="rounded=0;whiteSpace=wrap;html=1;" parent="1" vertex="1">
          <mxGeometry x="350" y="40" width="80" height="20" as="geometry" />
        </mxCell>
        <mxCell id="KfAJ2f1x3CQTypNjE7IO-4" value="" style="edgeStyle=orthogonalEdgeStyle;rounded=0;orthogonalLoop=1;jettySize=auto;html=1;" edge="1" parent="1" source="KfAJ2f1x3CQTypNjE7IO-2" target="16FIuzxWoAcxYkZVvPK7-2">
          <mxGeometry relative="1" as="geometry" />
        </mxCell>
        <mxCell id="KfAJ2f1x3CQTypNjE7IO-2" value="Con Ruedas" style="rounded=0;whiteSpace=wrap;html=1;" vertex="1" parent="1">
          <mxGeometry x="297.5" y="100" width="80" height="20" as="geometry" />
        </mxCell>
        <mxCell id="KfAJ2f1x3CQTypNjE7IO-5" value="" style="edgeStyle=orthogonalEdgeStyle;rounded=0;orthogonalLoop=1;jettySize=auto;html=1;" edge="1" parent="1" source="KfAJ2f1x3CQTypNjE7IO-3" target="16FIuzxWoAcxYkZVvPK7-2">
          <mxGeometry relative="1" as="geometry" />
        </mxCell>
        <mxCell id="KfAJ2f1x3CQTypNjE7IO-3" value="Sin Ruedas" style="rounded=0;whiteSpace=wrap;html=1;" vertex="1" parent="1">
          <mxGeometry x="402.5" y="100" width="80" height="20" as="geometry" />
        </mxCell>
        <mxCell id="KfAJ2f1x3CQTypNjE7IO-12" value="" style="edgeStyle=orthogonalEdgeStyle;rounded=0;orthogonalLoop=1;jettySize=auto;html=1;entryX=0.5;entryY=1;entryDx=0;entryDy=0;" edge="1" parent="1" source="KfAJ2f1x3CQTypNjE7IO-6" target="KfAJ2f1x3CQTypNjE7IO-2">
          <mxGeometry relative="1" as="geometry">
            <mxPoint x="66.29885057471273" y="90" as="targetPoint" />
            <Array as="points">
              <mxPoint x="50" y="140" />
              <mxPoint x="337" y="140" />
            </Array>
          </mxGeometry>
        </mxCell>
        <mxCell id="KfAJ2f1x3CQTypNjE7IO-6" value="Cuatriciclo" style="rounded=0;whiteSpace=wrap;html=1;" vertex="1" parent="1">
          <mxGeometry x="20" y="150" width="62.5" height="20" as="geometry" />
        </mxCell>
        <mxCell id="KfAJ2f1x3CQTypNjE7IO-7" value="Triciclo" style="rounded=0;whiteSpace=wrap;html=1;" vertex="1" parent="1">
          <mxGeometry x="90" y="150" width="62.5" height="20" as="geometry" />
        </mxCell>
        <mxCell id="KfAJ2f1x3CQTypNjE7IO-8" value="Bicicleta" style="rounded=0;whiteSpace=wrap;html=1;" vertex="1" parent="1">
          <mxGeometry x="160" y="150" width="62.5" height="20" as="geometry" />
        </mxCell>
        <mxCell id="KfAJ2f1x3CQTypNjE7IO-9" value="Monociclo" style="rounded=0;whiteSpace=wrap;html=1;" vertex="1" parent="1">
          <mxGeometry x="230" y="150" width="62.5" height="20" as="geometry" />
        </mxCell>
        <mxCell id="KfAJ2f1x3CQTypNjE7IO-10" value="Monopatin" style="rounded=0;whiteSpace=wrap;html=1;" vertex="1" parent="1">
          <mxGeometry x="300" y="150" width="62.5" height="20" as="geometry" />
        </mxCell>
        <mxCell id="KfAJ2f1x3CQTypNjE7IO-13" value="" style="endArrow=none;html=1;rounded=0;entryX=0.5;entryY=0;entryDx=0;entryDy=0;" edge="1" parent="1" target="KfAJ2f1x3CQTypNjE7IO-7">
          <mxGeometry width="50" height="50" relative="1" as="geometry">
            <mxPoint x="121" y="140" as="sourcePoint" />
            <mxPoint x="225" y="130" as="targetPoint" />
          </mxGeometry>
        </mxCell>
        <mxCell id="KfAJ2f1x3CQTypNjE7IO-14" value="" style="endArrow=none;html=1;rounded=0;entryX=0.5;entryY=0;entryDx=0;entryDy=0;" edge="1" parent="1">
          <mxGeometry width="50" height="50" relative="1" as="geometry">
            <mxPoint x="191.14" y="140" as="sourcePoint" />
            <mxPoint x="191.14" y="150" as="targetPoint" />
          </mxGeometry>
        </mxCell>
        <mxCell id="KfAJ2f1x3CQTypNjE7IO-15" value="" style="endArrow=none;html=1;rounded=0;entryX=0.5;entryY=0;entryDx=0;entryDy=0;" edge="1" parent="1">
          <mxGeometry width="50" height="50" relative="1" as="geometry">
            <mxPoint x="261.14" y="140" as="sourcePoint" />
            <mxPoint x="261.14" y="150" as="targetPoint" />
          </mxGeometry>
        </mxCell>
        <mxCell id="KfAJ2f1x3CQTypNjE7IO-16" value="" style="endArrow=none;html=1;rounded=0;entryX=0.5;entryY=0;entryDx=0;entryDy=0;" edge="1" parent="1">
          <mxGeometry width="50" height="50" relative="1" as="geometry">
            <mxPoint x="337.39" y="140" as="sourcePoint" />
            <mxPoint x="337.39" y="150" as="targetPoint" />
          </mxGeometry>
        </mxCell>
        <mxCell id="KfAJ2f1x3CQTypNjE7IO-19" value="" style="ellipse;whiteSpace=wrap;html=1;aspect=fixed;" vertex="1" parent="1">
          <mxGeometry x="297.5" y="70" width="10" height="10" as="geometry" />
        </mxCell>
        <mxCell id="KfAJ2f1x3CQTypNjE7IO-20" value="&lt;font style=&quot;font-size: 6px;&quot;&gt;Tipo de Rodado&lt;/font&gt;" style="text;html=1;align=center;verticalAlign=middle;whiteSpace=wrap;rounded=0;" vertex="1" parent="1">
          <mxGeometry x="272.5" y="60" width="60" height="2.5" as="geometry" />
        </mxCell>
        <mxCell id="KfAJ2f1x3CQTypNjE7IO-21" value="" style="endArrow=none;html=1;rounded=0;entryX=0.5;entryY=1;entryDx=0;entryDy=0;exitX=0.061;exitY=0.002;exitDx=0;exitDy=0;exitPerimeter=0;" edge="1" parent="1" source="KfAJ2f1x3CQTypNjE7IO-2" target="KfAJ2f1x3CQTypNjE7IO-19">
          <mxGeometry width="50" height="50" relative="1" as="geometry">
            <mxPoint x="250" y="130" as="sourcePoint" />
            <mxPoint x="300" y="90" as="targetPoint" />
          </mxGeometry>
        </mxCell>
        <mxCell id="KfAJ2f1x3CQTypNjE7IO-22" value="&lt;font style=&quot;font-size: 10px;&quot;&gt;Tipo de Rodado&lt;/font&gt;" style="rounded=0;whiteSpace=wrap;html=1;" vertex="1" parent="1">
          <mxGeometry x="35.620000000000005" y="20" width="78.75" height="20" as="geometry" />
        </mxCell>
        <mxCell id="KfAJ2f1x3CQTypNjE7IO-28" value="" style="edgeStyle=orthogonalEdgeStyle;rounded=0;orthogonalLoop=1;jettySize=auto;html=1;" edge="1" parent="1" source="KfAJ2f1x3CQTypNjE7IO-25" target="KfAJ2f1x3CQTypNjE7IO-22">
          <mxGeometry relative="1" as="geometry">
            <Array as="points">
              <mxPoint x="35.370000000000005" y="60" />
              <mxPoint x="75.37" y="60" />
            </Array>
          </mxGeometry>
        </mxCell>
        <mxCell id="KfAJ2f1x3CQTypNjE7IO-25" value="TamaÃ±o de Rodado" style="ellipse;whiteSpace=wrap;html=1;" vertex="1" parent="1">
          <mxGeometry y="70" width="70" height="40" as="geometry" />
        </mxCell>
        <mxCell id="KfAJ2f1x3CQTypNjE7IO-29" value="" style="edgeStyle=orthogonalEdgeStyle;rounded=0;orthogonalLoop=1;jettySize=auto;html=1;" edge="1" parent="1" source="KfAJ2f1x3CQTypNjE7IO-26" target="KfAJ2f1x3CQTypNjE7IO-22">
          <mxGeometry relative="1" as="geometry">
            <Array as="points">
              <mxPoint x="115.37" y="60" />
              <mxPoint x="75.37" y="60" />
            </Array>
          </mxGeometry>
        </mxCell>
        <mxCell id="KfAJ2f1x3CQTypNjE7IO-26" value="Identificador" style="ellipse;whiteSpace=wrap;html=1;" vertex="1" parent="1">
          <mxGeometry x="80" y="70" width="70" height="40" as="geometry" />
        </mxCell>
        <mxCell id="KfAJ2f1x3CQTypNjE7IO-30" value="" style="rhombus;whiteSpace=wrap;html=1;strokeWidth=2;fillWeight=-1;hachureGap=8;fillStyle=cross-hatch;fillColor=#006600;sketch=1;" vertex="1" parent="1">
          <mxGeometry x="430" y="42.5" width="30" height="15" as="geometry" />
        </mxCell>
        <mxCell id="KfAJ2f1x3CQTypNjE7IO-31" value="" style="endArrow=classic;html=1;rounded=0;exitX=1;exitY=0.5;exitDx=0;exitDy=0;" edge="1" parent="1" source="KfAJ2f1x3CQTypNjE7IO-30">
          <mxGeometry width="50" height="50" relative="1" as="geometry">
            <mxPoint x="440" y="90" as="sourcePoint" />
            <mxPoint x="490" y="50" as="targetPoint" />
          </mxGeometry>
        </mxCell>
        <mxCell id="KfAJ2f1x3CQTypNjE7IO-32" value="Chasis" style="rounded=0;whiteSpace=wrap;html=1;" vertex="1" parent="1">
          <mxGeometry x="490" y="40" width="60" height="20" as="geometry" />
        </mxCell>
        <mxCell id="KfAJ2f1x3CQTypNjE7IO-33" value="Manubrio" style="rounded=0;whiteSpace=wrap;html=1;" vertex="1" parent="1">
          <mxGeometry x="20" y="230" width="62.5" height="20" as="geometry" />
        </mxCell>
        <mxCell id="KfAJ2f1x3CQTypNjE7IO-34" value="Asiento" style="rounded=0;whiteSpace=wrap;html=1;" vertex="1" parent="1">
          <mxGeometry x="90" y="230" width="62.5" height="20" as="geometry" />
        </mxCell>
        <mxCell id="KfAJ2f1x3CQTypNjE7IO-35" value="Frenos" style="rounded=0;whiteSpace=wrap;html=1;" vertex="1" parent="1">
          <mxGeometry x="160" y="230" width="62.5" height="20" as="geometry" />
        </mxCell>
        <mxCell id="KfAJ2f1x3CQTypNjE7IO-47" value="" style="rhombus;whiteSpace=wrap;html=1;strokeWidth=2;fillWeight=-1;hachureGap=8;fillStyle=cross-hatch;fillColor=#006600;sketch=1;rotation=-90;" vertex="1" parent="1">
          <mxGeometry x="176.25" y="180" width="30" height="15" as="geometry" />
        </mxCell>
        <mxCell id="KfAJ2f1x3CQTypNjE7IO-49" value="" style="rhombus;whiteSpace=wrap;html=1;strokeWidth=2;fillWeight=-1;hachureGap=8;fillStyle=cross-hatch;fillColor=#006600;sketch=1;rotation=-90;" vertex="1" parent="1">
          <mxGeometry x="106.25" y="180" width="30" height="15" as="geometry" />
        </mxCell>
        <mxCell id="KfAJ2f1x3CQTypNjE7IO-50" value="" style="rhombus;whiteSpace=wrap;html=1;strokeWidth=2;fillWeight=-1;hachureGap=8;fillStyle=cross-hatch;fillColor=#006600;sketch=1;rotation=-90;" vertex="1" parent="1">
          <mxGeometry x="36.25" y="180" width="30" height="15" as="geometry" />
        </mxCell>
        <mxCell id="KfAJ2f1x3CQTypNjE7IO-51" value="" style="endArrow=none;html=1;rounded=0;exitX=0.5;exitY=0;exitDx=0;exitDy=0;entryX=0.5;entryY=0;entryDx=0;entryDy=0;" edge="1" parent="1" source="KfAJ2f1x3CQTypNjE7IO-33" target="KfAJ2f1x3CQTypNjE7IO-35">
          <mxGeometry width="50" height="50" relative="1" as="geometry">
            <mxPoint x="150" y="240" as="sourcePoint" />
            <mxPoint x="240" y="220" as="targetPoint" />
            <Array as="points">
              <mxPoint x="51" y="220" />
              <mxPoint x="190" y="220" />
            </Array>
          </mxGeometry>
        </mxCell>
        <mxCell id="KfAJ2f1x3CQTypNjE7IO-52" value="" style="endArrow=none;html=1;rounded=0;exitX=0.5;exitY=0;exitDx=0;exitDy=0;entryX=0;entryY=0.5;entryDx=0;entryDy=0;" edge="1" parent="1" source="KfAJ2f1x3CQTypNjE7IO-34" target="KfAJ2f1x3CQTypNjE7IO-49">
          <mxGeometry width="50" height="50" relative="1" as="geometry">
            <mxPoint x="150" y="240" as="sourcePoint" />
            <mxPoint x="200" y="190" as="targetPoint" />
          </mxGeometry>
        </mxCell>
        <mxCell id="KfAJ2f1x3CQTypNjE7IO-53" value="" style="endArrow=none;html=1;rounded=0;exitX=0;exitY=0.5;exitDx=0;exitDy=0;entryX=0;entryY=0.5;entryDx=0;entryDy=0;" edge="1" parent="1" source="KfAJ2f1x3CQTypNjE7IO-50" target="KfAJ2f1x3CQTypNjE7IO-47">
          <mxGeometry width="50" height="50" relative="1" as="geometry">
            <mxPoint x="102.5" y="240" as="sourcePoint" />
            <mxPoint x="152.5" y="190" as="targetPoint" />
            <Array as="points">
              <mxPoint x="50" y="210" />
              <mxPoint x="120" y="210" />
              <mxPoint x="190" y="210" />
            </Array>
          </mxGeometry>
        </mxCell>
        <mxCell id="KfAJ2f1x3CQTypNjE7IO-54" value="Manubrio" style="rounded=0;whiteSpace=wrap;html=1;" vertex="1" parent="1">
          <mxGeometry x="195" y="260" width="62.5" height="20" as="geometry" />
        </mxCell>
        <mxCell id="KfAJ2f1x3CQTypNjE7IO-55" value="Asiento" style="rounded=0;whiteSpace=wrap;html=1;" vertex="1" parent="1">
          <mxGeometry x="265" y="260" width="62.5" height="20" as="geometry" />
        </mxCell>
        <mxCell id="KfAJ2f1x3CQTypNjE7IO-56" value="" style="rhombus;whiteSpace=wrap;html=1;strokeWidth=2;fillWeight=-1;hachureGap=8;fillStyle=cross-hatch;fillColor=#006600;sketch=1;rotation=-90;" vertex="1" parent="1">
          <mxGeometry x="246.25" y="180" width="30" height="15" as="geometry" />
        </mxCell>
        <mxCell id="KfAJ2f1x3CQTypNjE7IO-57" value="" style="rhombus;whiteSpace=wrap;html=1;strokeWidth=2;fillWeight=-1;hachureGap=8;fillStyle=cross-hatch;fillColor=#006600;sketch=1;rotation=-90;" vertex="1" parent="1">
          <mxGeometry x="320" y="180" width="30" height="15" as="geometry" />
        </mxCell>
        <mxCell id="KfAJ2f1x3CQTypNjE7IO-58" value="" style="endArrow=none;html=1;rounded=0;exitX=0.5;exitY=0;exitDx=0;exitDy=0;entryX=0.5;entryY=0;entryDx=0;entryDy=0;" edge="1" parent="1" source="KfAJ2f1x3CQTypNjE7IO-54" target="KfAJ2f1x3CQTypNjE7IO-55">
          <mxGeometry width="50" height="50" relative="1" as="geometry">
            <mxPoint x="242.5" y="250" as="sourcePoint" />
            <mxPoint x="292.5" y="200" as="targetPoint" />
            <Array as="points">
              <mxPoint x="260" y="250" />
            </Array>
          </mxGeometry>
        </mxCell>
        <mxCell id="KfAJ2f1x3CQTypNjE7IO-59" value="" style="endArrow=none;html=1;rounded=0;entryX=0;entryY=0.5;entryDx=0;entryDy=0;" edge="1" parent="1" target="KfAJ2f1x3CQTypNjE7IO-56">
          <mxGeometry width="50" height="50" relative="1" as="geometry">
            <mxPoint x="260" y="250" as="sourcePoint" />
            <mxPoint x="200" y="190" as="targetPoint" />
          </mxGeometry>
        </mxCell>
        <mxCell id="KfAJ2f1x3CQTypNjE7IO-60" value="Manubrio" style="rounded=0;whiteSpace=wrap;html=1;" vertex="1" parent="1">
          <mxGeometry x="306.25" y="230" width="62.5" height="20" as="geometry" />
        </mxCell>
        <mxCell id="KfAJ2f1x3CQTypNjE7IO-61" value="" style="endArrow=none;html=1;rounded=0;entryX=0;entryY=0.5;entryDx=0;entryDy=0;exitX=0.469;exitY=-0.023;exitDx=0;exitDy=0;exitPerimeter=0;" edge="1" parent="1" source="KfAJ2f1x3CQTypNjE7IO-60" target="KfAJ2f1x3CQTypNjE7IO-57">
          <mxGeometry width="50" height="50" relative="1" as="geometry">
            <mxPoint x="282.5" y="260" as="sourcePoint" />
            <mxPoint x="332.5" y="210" as="targetPoint" />
          </mxGeometry>
        </mxCell>
        <mxCell id="KfAJ2f1x3CQTypNjE7IO-62" value="" style="ellipse;whiteSpace=wrap;html=1;aspect=fixed;" vertex="1" parent="1">
          <mxGeometry x="352.5" y="10" width="10" height="10" as="geometry" />
        </mxCell>
        <mxCell id="KfAJ2f1x3CQTypNjE7IO-63" value="" style="endArrow=none;html=1;rounded=0;entryX=0.5;entryY=1;entryDx=0;entryDy=0;exitX=0.061;exitY=0.002;exitDx=0;exitDy=0;exitPerimeter=0;" edge="1" parent="1" target="KfAJ2f1x3CQTypNjE7IO-62">
          <mxGeometry width="50" height="50" relative="1" as="geometry">
            <mxPoint x="357" y="40" as="sourcePoint" />
            <mxPoint x="355" y="30" as="targetPoint" />
          </mxGeometry>
        </mxCell>
        <mxCell id="KfAJ2f1x3CQTypNjE7IO-64" value="&lt;font style=&quot;font-size: 10px;&quot;&gt;Tipo de Material&lt;/font&gt;" style="rounded=0;whiteSpace=wrap;html=1;" vertex="1" parent="1">
          <mxGeometry x="618.74" y="117.5" width="78.75" height="20" as="geometry" />
        </mxCell>
        <mxCell id="KfAJ2f1x3CQTypNjE7IO-72" value="" style="edgeStyle=orthogonalEdgeStyle;rounded=0;orthogonalLoop=1;jettySize=auto;html=1;" edge="1" parent="1" source="KfAJ2f1x3CQTypNjE7IO-67" target="KfAJ2f1x3CQTypNjE7IO-64">
          <mxGeometry relative="1" as="geometry" />
        </mxCell>
        <mxCell id="KfAJ2f1x3CQTypNjE7IO-67" value="Madera" style="ellipse;whiteSpace=wrap;html=1;" vertex="1" parent="1">
          <mxGeometry x="576.87" y="172.5" width="80" height="30" as="geometry" />
        </mxCell>
        <mxCell id="KfAJ2f1x3CQTypNjE7IO-73" value="" style="edgeStyle=orthogonalEdgeStyle;rounded=0;orthogonalLoop=1;jettySize=auto;html=1;" edge="1" parent="1" source="KfAJ2f1x3CQTypNjE7IO-69" target="KfAJ2f1x3CQTypNjE7IO-64">
          <mxGeometry relative="1" as="geometry" />
        </mxCell>
        <mxCell id="KfAJ2f1x3CQTypNjE7IO-69" value="Plastico" style="ellipse;whiteSpace=wrap;html=1;" vertex="1" parent="1">
          <mxGeometry x="664.37" y="172.5" width="80" height="30" as="geometry" />
        </mxCell>
        <mxCell id="KfAJ2f1x3CQTypNjE7IO-70" value="Metal" style="ellipse;whiteSpace=wrap;html=1;" vertex="1" parent="1">
          <mxGeometry x="490.62" y="172.5" width="80" height="30" as="geometry" />
        </mxCell>
        <mxCell id="KfAJ2f1x3CQTypNjE7IO-71" value="Identificador" style="ellipse;whiteSpace=wrap;html=1;" vertex="1" parent="1">
          <mxGeometry x="751.87" y="172.5" width="80" height="30" as="geometry" />
        </mxCell>
        <mxCell id="KfAJ2f1x3CQTypNjE7IO-74" value="" style="endArrow=none;html=1;rounded=0;exitX=0.5;exitY=0;exitDx=0;exitDy=0;" edge="1" parent="1" source="KfAJ2f1x3CQTypNjE7IO-70">
          <mxGeometry width="50" height="50" relative="1" as="geometry">
            <mxPoint x="536.24" y="162.5" as="sourcePoint" />
            <mxPoint x="619.99" y="152.5" as="targetPoint" />
            <Array as="points">
              <mxPoint x="529.99" y="152.5" />
            </Array>
          </mxGeometry>
        </mxCell>
        <mxCell id="KfAJ2f1x3CQTypNjE7IO-75" value="" style="endArrow=none;html=1;rounded=0;exitX=0.5;exitY=0;exitDx=0;exitDy=0;" edge="1" parent="1" source="KfAJ2f1x3CQTypNjE7IO-71">
          <mxGeometry width="50" height="50" relative="1" as="geometry">
            <mxPoint x="559.99" y="162.5" as="sourcePoint" />
            <mxPoint x="699.99" y="152.5" as="targetPoint" />
            <Array as="points">
              <mxPoint x="791.99" y="152.5" />
            </Array>
          </mxGeometry>
        </mxCell>
        <mxCell id="KfAJ2f1x3CQTypNjE7IO-76" value="" style="ellipse;whiteSpace=wrap;html=1;aspect=fixed;" vertex="1" parent="1">
          <mxGeometry x="166.25" y="120" width="10" height="10" as="geometry" />
        </mxCell>
        <mxCell id="KfAJ2f1x3CQTypNjE7IO-77" value="" style="endArrow=none;html=1;rounded=0;entryX=0.5;entryY=1;entryDx=0;entryDy=0;exitX=0.061;exitY=0.002;exitDx=0;exitDy=0;exitPerimeter=0;" edge="1" parent="1" target="KfAJ2f1x3CQTypNjE7IO-76">
          <mxGeometry width="50" height="50" relative="1" as="geometry">
            <mxPoint x="170.75" y="150" as="sourcePoint" />
            <mxPoint x="168.75" y="140" as="targetPoint" />
          </mxGeometry>
        </mxCell>
        <mxCell id="KfAJ2f1x3CQTypNjE7IO-78" value="&lt;font style=&quot;font-size: 6px;&quot;&gt;Caracteristicas de Bicicletas&lt;/font&gt;" style="text;html=1;align=center;verticalAlign=middle;whiteSpace=wrap;rounded=0;" vertex="1" parent="1">
          <mxGeometry x="160" y="100" width="63.75" height="30" as="geometry" />
        </mxCell>
        <mxCell id="KfAJ2f1x3CQTypNjE7IO-79" value="&lt;font style=&quot;font-size: 10px;&quot;&gt;Caracteristicas de Bicicletas&lt;/font&gt;" style="rounded=0;whiteSpace=wrap;html=1;" vertex="1" parent="1">
          <mxGeometry x="621.8699999999999" y="5" width="78.75" height="35" as="geometry" />
        </mxCell>
        <mxCell id="KfAJ2f1x3CQTypNjE7IO-80" value="" style="edgeStyle=orthogonalEdgeStyle;rounded=0;orthogonalLoop=1;jettySize=auto;html=1;" edge="1" parent="1" source="KfAJ2f1x3CQTypNjE7IO-81" target="KfAJ2f1x3CQTypNjE7IO-79">
          <mxGeometry relative="1" as="geometry">
            <Array as="points">
              <mxPoint x="621.6199999999999" y="60" />
              <mxPoint x="661.6199999999999" y="60" />
            </Array>
          </mxGeometry>
        </mxCell>
        <mxCell id="KfAJ2f1x3CQTypNjE7IO-81" value="Rigida" style="ellipse;whiteSpace=wrap;html=1;" vertex="1" parent="1">
          <mxGeometry x="586.25" y="70" width="70" height="40" as="geometry" />
        </mxCell>
        <mxCell id="KfAJ2f1x3CQTypNjE7IO-82" value="" style="edgeStyle=orthogonalEdgeStyle;rounded=0;orthogonalLoop=1;jettySize=auto;html=1;" edge="1" parent="1" source="KfAJ2f1x3CQTypNjE7IO-83" target="KfAJ2f1x3CQTypNjE7IO-79">
          <mxGeometry relative="1" as="geometry">
            <Array as="points">
              <mxPoint x="701.6199999999999" y="60" />
              <mxPoint x="661.6199999999999" y="60" />
            </Array>
          </mxGeometry>
        </mxCell>
        <mxCell id="KfAJ2f1x3CQTypNjE7IO-83" value="Plegable" style="ellipse;whiteSpace=wrap;html=1;" vertex="1" parent="1">
          <mxGeometry x="666.25" y="70" width="70" height="40" as="geometry" />
        </mxCell>
        <mxCell id="KfAJ2f1x3CQTypNjE7IO-84" value="" style="ellipse;whiteSpace=wrap;html=1;aspect=fixed;" vertex="1" parent="1">
          <mxGeometry x="490" y="10" width="10" height="10" as="geometry" />
        </mxCell>
        <mxCell id="KfAJ2f1x3CQTypNjE7IO-85" value="" style="endArrow=none;html=1;rounded=0;entryX=0.5;entryY=1;entryDx=0;entryDy=0;exitX=0.061;exitY=0.002;exitDx=0;exitDy=0;exitPerimeter=0;" edge="1" parent="1" target="KfAJ2f1x3CQTypNjE7IO-84">
          <mxGeometry width="50" height="50" relative="1" as="geometry">
            <mxPoint x="494.5" y="40" as="sourcePoint" />
            <mxPoint x="492.5" y="30" as="targetPoint" />
          </mxGeometry>
        </mxCell>
        <mxCell id="KfAJ2f1x3CQTypNjE7IO-87" value="&lt;font style=&quot;font-size: 6px;&quot;&gt;Tipo de Material&lt;/font&gt;" style="text;html=1;align=center;verticalAlign=middle;whiteSpace=wrap;rounded=0;" vertex="1" parent="1">
          <mxGeometry x="297.5" y="15" width="60" as="geometry" />
        </mxCell>
        <mxCell id="KfAJ2f1x3CQTypNjE7IO-88" value="&lt;font style=&quot;font-size: 6px;&quot;&gt;Tipo de Material&lt;/font&gt;" style="text;html=1;align=center;verticalAlign=middle;whiteSpace=wrap;rounded=0;" vertex="1" parent="1">
          <mxGeometry x="430" y="15" width="60" as="geometry" />
        </mxCell>
        <mxCell id="KfAJ2f1x3CQTypNjE7IO-89" value="" style="ellipse;whiteSpace=wrap;html=1;aspect=fixed;" vertex="1" parent="1">
          <mxGeometry x="310" y="80" width="10" height="10" as="geometry" />
        </mxCell>
        <mxCell id="KfAJ2f1x3CQTypNjE7IO-90" value="" style="endArrow=none;html=1;rounded=0;entryX=0.5;entryY=1;entryDx=0;entryDy=0;exitX=0.061;exitY=0.002;exitDx=0;exitDy=0;exitPerimeter=0;" edge="1" parent="1" target="KfAJ2f1x3CQTypNjE7IO-89">
          <mxGeometry width="50" height="50" relative="1" as="geometry">
            <mxPoint x="314.5" y="100" as="sourcePoint" />
            <mxPoint x="312.5" y="90" as="targetPoint" />
          </mxGeometry>
        </mxCell>
        <mxCell id="KfAJ2f1x3CQTypNjE7IO-91" value="&lt;font style=&quot;font-size: 6px;&quot;&gt;Tipo de Material&lt;/font&gt;" style="text;html=1;align=center;verticalAlign=middle;whiteSpace=wrap;rounded=0;" vertex="1" parent="1">
          <mxGeometry x="302.5" y="70" width="60" height="2.5" as="geometry" />
        </mxCell>
      </root>
    </mxGraphModel>
  </diagram>
</mxfile>
